<svg width="40" height="40" viewBox="0 0 40 40" fill="none" xmlns="http://www.w3.org/2000/svg">
<rect width="40" height="40" rx="20" fill="#C7D2FE"/>
<path d="M25.3828 26.707C25.3828 26.7695 25.3672 26.8242 25.3359 26.8711C25.3047 26.9102 25.25 26.9453 25.1719 26.9766C25.0938 27.0078 24.9883 27.0312 24.8555 27.0469C24.7305 27.0625 24.5703 27.0703 24.375 27.0703C24.1875 27.0703 24.0273 27.0625 23.8945 27.0469C23.7617 27.0312 23.6562 27.0078 23.5781 26.9766C23.5078 26.9453 23.457 26.9102 23.4258 26.8711C23.3945 26.8242 23.3789 26.7695 23.3789 26.707V16.7578C23.3789 16.5156 23.3828 16.2656 23.3906 16.0078C23.3984 15.7422 23.4102 15.5039 23.4258 15.293H23.4023C23.3398 15.4023 23.2695 15.5195 23.1914 15.6445C23.1211 15.7695 23.043 15.9023 22.957 16.043C22.8711 16.1758 22.7852 16.3125 22.6992 16.4531C22.6133 16.5859 22.5273 16.7188 22.4414 16.8516L15.8789 26.7188C15.832 26.7812 15.7852 26.8359 15.7383 26.8828C15.6914 26.9297 15.6289 26.9688 15.5508 27C15.4805 27.0234 15.3945 27.0391 15.293 27.0469C15.1914 27.0625 15.0625 27.0703 14.9062 27.0703C14.7266 27.0703 14.5781 27.0625 14.4609 27.0469C14.3516 27.0312 14.2617 27.0078 14.1914 26.9766C14.1289 26.9375 14.082 26.8945 14.0508 26.8477C14.0273 26.8008 14.0156 26.7422 14.0156 26.6719V12.1289C14.0156 12.0742 14.0312 12.0234 14.0625 11.9766C14.1016 11.9297 14.1602 11.8906 14.2383 11.8594C14.3242 11.8281 14.4297 11.8047 14.5547 11.7891C14.6875 11.7734 14.8438 11.7656 15.0234 11.7656C15.2188 11.7656 15.3789 11.7734 15.5039 11.7891C15.6367 11.8047 15.7422 11.8281 15.8203 11.8594C15.8984 11.8906 15.9531 11.9297 15.9844 11.9766C16.0156 12.0234 16.0312 12.0742 16.0312 12.1289V22.1367C16.0312 22.3477 16.0273 22.5742 16.0195 22.8164C16.0195 23.0586 16.0078 23.293 15.9844 23.5195H16.0078C16.1328 23.3242 16.2773 23.0898 16.4414 22.8164C16.6133 22.5352 16.793 22.2578 16.9805 21.9844L23.5312 12.1055C23.5703 12.0508 23.6133 12.0039 23.6602 11.9648C23.707 11.918 23.7656 11.8828 23.8359 11.8594C23.9141 11.8281 24.0039 11.8047 24.1055 11.7891C24.207 11.7734 24.3359 11.7656 24.4922 11.7656C24.6719 11.7656 24.8164 11.7734 24.9258 11.7891C25.043 11.8047 25.1328 11.832 25.1953 11.8711C25.2656 11.9023 25.3125 11.9414 25.3359 11.9883C25.3672 12.0273 25.3828 12.082 25.3828 12.1523V26.707Z" fill="black"/>
</svg>
